<svg id="Layer_1" data-name="Layer 1" xmlns="http://www.w3.org/2000/svg" xmlns:xlink="http://www.w3.org/1999/xlink" width="38.3131" height="29.7894" viewBox="0 0 38.3131 29.7894">
  <defs>
    <clipPath id="clip-path" transform="translate(-6.6869 -9.2063)">
      <rect width="48" height="48" fill="none"/>
    </clipPath>
  </defs>
  <title>iconJTT_48px</title>
  <g clip-path="url(#clip-path)">
    <g>
      <path d="M44.7349,11.4051a17.8233,17.8233,0,0,0-4.8818-1.22c-1.825,0-3.6339-.004-6.2244-.03-4.9322-.05-10.2214.0915-14.9507-.03.6468.0167,2.0419-.4278,1.8-.7323-7.0529-.489-8.4878.1492-10.496.1221-2.7031-.0365-2.4155,1.3932-3.2953,3.7224.8146.0322,1.0219.7064,2.5858.14-1.9145,1.0808,1.9058.6025,2.21.6686,1.067-.8821,4.6286.0134,5.8333-.2422,3.678-.0108,7.2706-.3246,11.1566-.0778,6.7578-.1341,13.4677.5725,13.3947-.8849C43.374,12.3742,45.8082,11.7417,44.7349,11.4051Z" transform="translate(-6.6869 -9.2063)"/>
      <path d="M22.49,24.2777c.1322-1.1809-.1964-2.661-.0814-4.0364,1.1057-.1921.9148-3.321,1.61-1.6863.6052-1.3686,1.3177-.8806,2.7031-.9316.5516,6.0506-1.3679,12.6783-.8084,18.892-.1729.4992.0653.4668.4916.8435-.3438,1.52-.4651.2677-2.2795.4377.3895.0721.4751.9388.1457,1.1991-.9523-.2065-2.12.3473-1.9533-.709C22.3735,33.6291,22.2557,29.0782,22.49,24.2777Z" transform="translate(-6.6869 -9.2063)"/>
      <path d="M34.9494,17.8742c1.65-.6139.1853,2.3662.627,3.2215-.2112,3.1315.2442,6.4086-.3373,9.6561-.4019,7.67.8384,4.849-1.2089,6.353.05.0558.1161.0355.7293-.1148.0591.3151.1024,1.1068-.513,1.0477-4.4083.1039-2.7962,1.5856-2.9692-7.5077.5946-9.8433-.7546-10.11.957-11.68.3728-.3442-.2028-.8048.5338-.8986C33.4181,18.0238,35.1235,16.9391,34.9494,17.8742Z" transform="translate(-6.6869 -9.2063)"/>
      <path d="M10.1117,36.9387c-.2112,1.7119-2.8355-1.6763-2.6539-2.5177-.6011-6.92.0164-4.9531,1.6866-5.707.6143-.1535.721.245.6344.8823.0428,1.7743-.0324,4.5191,1.7692,5.1134,3.189,2.4775,2.8733-12.2135,2.9241-13.72-.2544-2.005-1.0423-2.3037.6461-3.8439,3.8063-.1563,2.2309-1.34,2.1568,7.5437C16.956,31.1343,18.3269,40.5876,10.1117,36.9387Z" transform="translate(-6.6869 -9.2063)"/>
    </g>
  </g>
</svg>
