<svg id="Layer_1" data-name="Layer 1" xmlns="http://www.w3.org/2000/svg" width="500" height="500" viewBox="0 0 500 500">
  <title>octopusFillGrey</title>
  <rect width="500" height="500" fill="#dedede"/>
  <g>
    <path d="M158.8537,345.24S118.63,354.2773,111,348s-22.7261-35.3484-25.0669-47.2971,33.4-42.1165,33.4-42.1165" fill="#d0d0d0" stroke="#a1a1a1" stroke-miterlimit="10" stroke-width="10"/>
    <path d="M244,80s18.353-22.8665,28-25,38.1512,2.4724,49,8,17.6025,39.6582,17.6025,39.6582" fill="#d0d0d0" stroke="#a1a1a1" stroke-miterlimit="10" stroke-width="10"/>
    <path d="M406.1318,119.4777c12.6391,1.8152,30.1179,30.1431,33.1664,45.3857,1.7456,8.7281-25.4252,37.6727-25.4252,37.6727l4.478,28.66,43.9121,23.93c6.9692,6.9693-1.4894,51.1185-10.4736,54.1138l-45.6577,9.2368s-8.8772,14.1637-13.9649,20.9472-18.6236,18.6592-18.6236,18.6592,12.8224,47.6255,6.1676,54.9282-26.3516,15.722-38.4033,17.456-40.3749-35.4851-40.3749-35.4851a150.8862,150.8862,0,0,1-27.8472,2.649,172.4033,172.4033,0,0,1-31.1561-3.3933s-18.6612,31.4513-26.416,32.7438c-10.1752,1.6959-37.3092-8.4794-37.3092-8.4794-11.8712-8.4794-8.5683-41.2216-9.4163-51.0217C113.672,341.6672,77.212,286.1849,77.212,222.1081A161.1116,161.1116,0,0,1,362.0571,118.9274C365.0051,122.4589,393.4926,117.6626,406.1318,119.4777Z" fill="#d0d0d0" stroke="#a1a1a1" stroke-miterlimit="10" stroke-width="10"/>
    <g>
      <path d="M258.7237,179.01a17.4584,17.4584,0,0,0-17.422-17.4221c-8.711,0-17.4221,8.711-17.4221,17.4221V203.4a17.4584,17.4584,0,0,0,17.4221,17.4221c8.711,0,17.422-8.7111,17.422-17.4221Z" fill="#a1a1a1"/>
      <path d="M149.1914,159.8453a17.4584,17.4584,0,0,0-17.422,17.4221v24.3908a17.4584,17.4584,0,0,0,17.422,17.4221c8.7111,0,17.4221-8.711,17.4221-17.4221V177.2674C168.3557,168.5563,159.6447,159.8453,149.1914,159.8453Z" fill="#a1a1a1"/>
    </g>
    <path d="M214.0206,244.8491q3.5511,0,3.5511,3.5512c-1.1837,11.8371-11.8371,20.1232-23.6743,20.1232s-21.3069-8.2861-23.6743-20.1232q0-3.5511,3.5512-3.5511Z" fill="#a1a1a1"/>
    <line x1="162" y1="364" x2="192" y2="376" fill="#878787" stroke="#a1a1a1" stroke-linecap="round" stroke-miterlimit="10" stroke-width="10"/>
    <line x1="362" y1="119" x2="378" y2="139" fill="#878787" stroke="#a1a1a1" stroke-linecap="round" stroke-miterlimit="10" stroke-width="10"/>
  </g>
</svg>
